<?xml version="1.0"?>
<svg xmlns="http://www.w3.org/2000/svg" id="Capa_1" enable-background="new 0 0 512 512" height="512px" viewBox="0 0 512 512" width="512px" class=""><g><path d="m256 29h48v32h-48z" fill="#fff" data-original="#FFF"/><path d="m288 53h48v32h-48z" fill="#fff" data-original="#FFF"/><path d="m24 269h464v200h-464z" fill="#b9c2cf" data-original="#B9C2CF"/><path d="m24 269h464v16h-464z" fill="#95a4b6" data-original="#95A4B6"/><path d="m56 445h400v24h-400z" fill="#fff" data-original="#FFF"/><path d="m6 469h500v24h-500z" fill="#fff" data-original="#FFF"/><path d="m184 277h144v168h-144z" fill="#dce1e7" data-original="#DCE1E7"/><path d="m184 277h144v16h-144z" fill="#b9c2cf" data-original="#B9C2CF"/><path d="m224 445v-80h64v80" fill="#fff" data-original="#FFF"/><path d="m136 277h48v168h-48z" fill="#fff" data-original="#FFF"/><path d="m136 277h48v16h-48z" fill="#dce1e7" data-original="#DCE1E7"/><path d="m328 277h48v168h-48z" fill="#fff" data-original="#FFF"/><path d="m328 277h48v16h-48z" fill="#dce1e7" data-original="#DCE1E7"/><path d="m48 301h64v120h-64z" fill="#fff" data-original="#FFF"/><path d="m400 301h64v120h-64z" fill="#fff" data-original="#FFF"/><path d="m6 237h114v32h-114z" fill="#95a4b6" data-original="#95A4B6"/><path d="m392 237h114v32h-114z" fill="#95a4b6" data-original="#95A4B6"/><path d="m392 237h20v32h-20z" fill="#72869e" data-original="#72869E"/><path d="m100 237h20v32h-20z" fill="#72869e" data-original="#72869E"/><path d="m120 245h272v32h-272z" fill="#b9c2cf" data-original="#B9C2CF"/><path d="m120 245h272v16h-272z" fill="#95a4b6" data-original="#95A4B6"/><path d="m384 181-128-72-128 72" fill="#95a4b6" data-original="#95A4B6"/><path d="m384 181h-256l28.44-16h199.12z" fill="#72869e" data-original="#72869E"/><path d="m104 181h304v64h-304z" fill="#dce1e7" data-original="#DCE1E7"/><path d="m208 309h96v32h-96z" fill="#fff" data-original="#FFF"/><g fill="#012d4a"><path d="m512 275v-44h-98v-56h-28.428l-123.572-69.509v-38.491h20v24h60v-44h-32v-24h-48v-10h-12v92.491l-123.572 69.509h-28.428v56h-98v44h18v188h-18v36h512v-36h-18v-188zm-12-32v20h-102v-12h16v-8zm-50 220h-388v-12h388zm-296-180v156h-12v-156zm180 156v-156h12v156zm-12 0h-28v-80h-76v80h-28v-156h132zm-92 0v-68h20v68zm32-68h20v68h-20zm-84 68h-12v-156h12zm180 0v-156h12v156zm-232-168v-20h260v20zm204-212v20h-36v-12h16v-8zm-32-24v20h-36v-20zm-42 80.884 105.095 59.116h-210.19zm-146 71.116h292v52h-4-284-4zm-98 56h86v8h16v12h-102zm18 32h84v8h16v156h-80v24h-20zm470 212h-488v-12h488zm-18-24h-20v-24h-80v-156h16v-8h84z" data-original="#012D4A" class="active-path" data-old_color="#012D4A" style="fill:#FDF7F7"/><path d="m118 295h-76v132h76zm-12 40h-20v-28h20zm-20 12h20v28h-20zm-12 28h-20v-28h20zm0-68v28h-20v-28zm-20 80h20v28h-20zm32 28v-28h20v28z" data-original="#012D4A" class="active-path" data-old_color="#012D4A" style="fill:#FDF7F7"/><path d="m394 427h76v-132h-76zm12-40h20v28h-20zm20-12h-20v-28h20zm12-28h20v28h-20zm0 68v-28h20v28zm20-80h-20v-28h20zm-32-28v28h-20v-28z" data-original="#012D4A" class="active-path" data-old_color="#012D4A" style="fill:#FDF7F7"/><path d="m310 347v-44h-108v44zm-64-12v-20h20v20zm52 0h-20v-20h20zm-84-20h20v20h-20z" data-original="#012D4A" class="active-path" data-old_color="#012D4A" style="fill:#FDF7F7"/></g></g> </svg>
