<?xml version="1.0" encoding="iso-8859-1"?>
<!-- Generator: Adobe Illustrator 22.1.0, SVG Export Plug-In . SVG Version: 6.00 Build 0)  -->
<svg xmlns="http://www.w3.org/2000/svg" xmlns:xlink="http://www.w3.org/1999/xlink" version="1.1" id="Layer_1" x="0px" y="0px" viewBox="0 0 100 100" style="enable-background:new 0 0 100 100;" xml:space="preserve" width="400px" height="400px">
<polygon style="fill:#F15B6C;" points="82,25.275 74.726,18.001 50,42.727 25.276,17.996 18.003,25.268 42.727,50 18,74.727   25.274,82.001 50,57.275 74.722,82.003 81.996,74.732 57.273,50.002 "/>
<g>
	<path style="fill:#1F212B;" d="M74.722,83.003L74.722,83.003c-0.265,0-0.52-0.105-0.707-0.293L50,58.689l-24.02,24.019   c-0.391,0.391-1.023,0.391-1.414,0l-7.274-7.274c-0.391-0.391-0.391-1.023,0-1.414L41.313,50L17.296,25.975   c-0.391-0.391-0.391-1.024,0-1.414l7.273-7.271c0.188-0.188,0.442-0.293,0.707-0.293l0,0c0.265,0,0.52,0.105,0.707,0.293L50,41.312   l24.019-24.019c0.391-0.391,1.023-0.391,1.414,0l7.274,7.274c0.391,0.391,0.391,1.023,0,1.414l-24.02,24.02l24.016,24.023   c0.391,0.391,0.391,1.024,0,1.414l-7.273,7.271C75.242,82.898,74.987,83.003,74.722,83.003z M50,56.275L50,56.275   c0.265,0,0.52,0.105,0.707,0.293l24.015,24.021l5.859-5.857L56.566,50.709c-0.391-0.391-0.391-1.023,0-1.414l24.02-24.02   l-5.86-5.86L50.707,43.434c-0.188,0.188-0.442,0.293-0.707,0.293l0,0c-0.265,0-0.52-0.105-0.707-0.293L25.276,19.411l-5.859,5.857   l24.018,24.024c0.391,0.391,0.391,1.023,0,1.414L19.414,74.727l5.86,5.86l24.02-24.019C49.481,56.38,49.735,56.275,50,56.275z"/>
</g>
<g>
	<path style="fill:#1F212B;" d="M74.5,75c-0.128,0-0.256-0.049-0.354-0.146l-1-1c-0.195-0.195-0.195-0.512,0-0.707   s0.512-0.195,0.707,0l1,1c0.195,0.195,0.195,0.512,0,0.707C74.756,74.951,74.628,75,74.5,75z"/>
</g>
<g>
	<path style="fill:#1F212B;" d="M71.5,72c-0.128,0-0.256-0.049-0.354-0.146l-2-2c-0.195-0.195-0.195-0.512,0-0.707   s0.512-0.195,0.707,0l2,2c0.195,0.195,0.195,0.512,0,0.707C71.756,71.951,71.628,72,71.5,72z"/>
</g>
<g>
	<path style="fill:#1F212B;" d="M67.5,68c-0.128,0-0.256-0.049-0.354-0.146l-17.5-17.5c-0.195-0.195-0.195-0.512,0-0.707l21.5-21.5   c0.195-0.195,0.512-0.195,0.707,0s0.195,0.512,0,0.707L50.707,50l17.146,17.146c0.195,0.195,0.195,0.512,0,0.707   C67.756,67.951,67.628,68,67.5,68z"/>
</g>
<g>
	<path style="fill:#1F212B;" d="M73.5,27c-0.128,0-0.256-0.049-0.354-0.146c-0.195-0.195-0.195-0.512,0-0.707l1-1   c0.195-0.195,0.512-0.195,0.707,0s0.195,0.512,0,0.707l-1,1C73.756,26.951,73.628,27,73.5,27z"/>
</g>
<g>
	<path style="fill:#1F212B;" d="M26.5,27c-0.128,0-0.256-0.049-0.354-0.146l-1-1c-0.195-0.195-0.195-0.512,0-0.707   s0.512-0.195,0.707,0l1,1c0.195,0.195,0.195,0.512,0,0.707C26.756,26.951,26.628,27,26.5,27z"/>
</g>
<g>
	<path style="fill:#1F212B;" d="M30.5,31c-0.128,0-0.256-0.049-0.354-0.146l-2-2c-0.195-0.195-0.195-0.512,0-0.707   s0.512-0.195,0.707,0l2,2c0.195,0.195,0.195,0.512,0,0.707C30.756,30.951,30.628,31,30.5,31z"/>
</g>
<g>
	<path style="fill:#1F212B;" d="M28.5,72c-0.128,0-0.256-0.049-0.354-0.146c-0.195-0.195-0.195-0.512,0-0.707L49.293,50   L32.146,32.854c-0.195-0.195-0.195-0.512,0-0.707s0.512-0.195,0.707,0l17.5,17.5c0.195,0.195,0.195,0.512,0,0.707l-21.5,21.5   C28.756,71.951,28.628,72,28.5,72z"/>
</g>
<g>
	<path style="fill:#1F212B;" d="M25.5,75c-0.128,0-0.256-0.049-0.354-0.146c-0.195-0.195-0.195-0.512,0-0.707l1-1   c0.195-0.195,0.512-0.195,0.707,0s0.195,0.512,0,0.707l-1,1C25.756,74.951,25.628,75,25.5,75z"/>
</g>
</svg>
