<?xml version="1.0" encoding="iso-8859-1"?>
<!-- Generator: Adobe Illustrator 22.1.0, SVG Export Plug-In . SVG Version: 6.00 Build 0)  -->
<svg xmlns="http://www.w3.org/2000/svg" xmlns:xlink="http://www.w3.org/1999/xlink" version="1.1" id="Layer_1" x="0px" y="0px" viewBox="0 0 100 100" style="enable-background:new 0 0 100 100;" xml:space="preserve" width="400px" height="400px">
<circle style="fill:#A1D3A2;" cx="50" cy="50" r="35"/>
<g>
	<g>
		<path style="fill:#FEFDEF;" d="M47.5,61.5c-0.481,0-0.964-0.173-1.346-0.521l-12-12c-0.817-0.742-0.877-2.008-0.134-2.825    c0.743-0.815,2.007-0.878,2.825-0.134l10.628,10.753l17.653-17.728c0.802-0.758,2.067-0.724,2.827,0.081    c0.759,0.803,0.723,2.068-0.081,2.827l-19,19C48.488,61.317,47.994,61.5,47.5,61.5z"/>
	</g>
</g>
<g>
	<g>
		<g>
			<path style="fill:#1F212B;" d="M47.5,62c-0.624,0-1.222-0.231-1.683-0.651L33.801,49.333c-0.477-0.432-0.767-1.047-0.798-1.714     c-0.031-0.667,0.198-1.307,0.647-1.801c0.93-1.019,2.514-1.092,3.531-0.167l10.293,10.413l17.298-17.371     C65.27,38.224,65.92,37.997,66.57,38c0.668,0.019,1.288,0.297,1.747,0.783c0.459,0.485,0.701,1.12,0.682,1.788     c-0.019,0.667-0.297,1.288-0.783,1.747l-18.989,18.99C48.75,61.758,48.141,62,47.5,62z M35.509,45.999     c-0.409,0-0.82,0.165-1.119,0.493c-0.269,0.296-0.407,0.68-0.388,1.08s0.192,0.769,0.488,1.038l12.018,12.017     c0.526,0.477,1.469,0.484,2.022-0.036l18.989-18.99c0.302-0.285,0.469-0.657,0.48-1.058c0.011-0.4-0.134-0.781-0.409-1.072     c-0.275-0.292-0.648-0.458-1.049-0.47c-0.392-0.019-0.78,0.133-1.071,0.409L47.828,57.126c-0.094,0.094-0.222,0.147-0.354,0.147     h-0.001c-0.133,0-0.261-0.054-0.354-0.148L36.49,46.372C36.215,46.123,35.863,45.999,35.509,45.999z"/>
		</g>
	</g>
</g>
<g>
	<path style="fill:#1F212B;" d="M50,86c-19.851,0-36-16.149-36-36s16.149-36,36-36s36,16.149,36,36S69.851,86,50,86z M50,16   c-18.748,0-34,15.252-34,34s15.252,34,34,34s34-15.252,34-34S68.748,16,50,16z"/>
</g>
<g>
	<path style="fill:#1F212B;" d="M65.5,24.227c-0.087,0-0.175-0.022-0.255-0.07c-0.638-0.377-1.299-0.735-1.967-1.065   c-0.247-0.123-0.349-0.422-0.227-0.67c0.122-0.249,0.424-0.347,0.67-0.227c0.689,0.341,1.374,0.711,2.033,1.102   c0.237,0.141,0.316,0.447,0.176,0.685C65.837,24.139,65.671,24.227,65.5,24.227z"/>
</g>
<g>
	<path style="fill:#1F212B;" d="M68.5,26.25c-0.106,0-0.213-0.034-0.304-0.103c-0.322-0.247-0.65-0.486-0.983-0.72   c-0.226-0.159-0.281-0.47-0.122-0.696c0.158-0.228,0.469-0.28,0.696-0.123c0.345,0.241,0.683,0.49,1.017,0.745   c0.22,0.167,0.261,0.481,0.094,0.701C68.799,26.182,68.65,26.25,68.5,26.25z"/>
</g>
<g>
	<path style="fill:#1F212B;" d="M50,81c-17.094,0-31-13.907-31-31s13.906-31,31-31c3.668,0,7.259,0.635,10.672,1.886   c0.26,0.095,0.393,0.382,0.298,0.642s-0.384,0.393-0.642,0.297C57.025,20.614,53.551,20,50,20c-16.542,0-30,13.458-30,30   s13.458,30,30,30s30-13.458,30-30c0-8.439-3.585-16.535-9.836-22.213c-0.205-0.186-0.22-0.502-0.034-0.707   c0.187-0.204,0.502-0.219,0.706-0.034C77.296,32.914,81,41.28,81,50C81,67.093,67.094,81,50,81z"/>
</g>
</svg>
