<?xml version="1.0" encoding="utf-8"?>
<!-- Generator: Adobe Illustrator 21.0.0, SVG Export Plug-In . SVG Version: 6.00 Build 0)  -->
<svg xmlns="http://www.w3.org/2000/svg" xmlns:xlink="http://www.w3.org/1999/xlink" version="1.1" x="0px" y="0px" viewBox="0 0 100 100" style="enable-background:new 0 0 100 100;" xml:space="preserve" width="400px" height="400px">

<g id="bin">
</g>
<g id="full_bin">
</g>
<g id="bookmark">
</g>
<g id="edit">
</g>
<g id="pen">
</g>
<g id="search">
	<g>
		<g>
			<circle cx="50.268" cy="31" r="22" style="fill:#A3A3CD;"/>
			<path d="M50.268,54c-12.683,0-23-10.318-23-23s10.317-23,23-23s23,10.318,23,23S62.95,54,50.268,54z M50.268,10     c-11.579,0-21,9.42-21,21s9.421,21,21,21s21-9.42,21-21S61.847,10,50.268,10z" style="fill:#1F212B;"/>
		</g>
		<path d="M50.268,61c-0.553,0-1-0.448-1-1v-7c0-0.552,0.447-1,1-1s1,0.448,1,1v7C51.268,60.552,50.82,61,50.268,61z" style="fill:#1F212B;"/>
		<g>
			<path d="M50.268,90L50.268,90c-2.75,0-5-2.25-5-5V65c0-2.75,2.25-5,5-5h0c2.75,0,5,2.25,5,5v20     C55.268,87.75,53.018,90,50.268,90z" style="fill:#FCBA7F;"/>
			<path d="M50.268,91c-3.309,0-6-2.691-6-6V65c0-3.309,2.691-6,6-6s6,2.691,6,6v20C56.268,88.309,53.576,91,50.268,91z      M50.268,61c-2.206,0-4,1.794-4,4v20c0,2.206,1.794,4,4,4s4-1.794,4-4V65C54.268,62.794,52.474,61,50.268,61z" style="fill:#1F212B;"/>
		</g>
		<path d="M50.268,60.953c-2.2,0-4,1.656-4,3.679V65h0.8h7.2v-0.368C54.268,62.609,52.468,60.953,50.268,60.953z" style="fill:#FED5B3;"/>
		<g>
			<circle cx="50.268" cy="31" r="17.5" style="fill:#78CDD4;"/>
			<path d="M50.268,49c-9.925,0-18-8.075-18-18s8.075-18,18-18s18,8.075,18,18S60.193,49,50.268,49z M50.268,14     c-9.374,0-17,7.626-17,17s7.626,17,17,17s17-7.626,17-17S59.642,14,50.268,14z" style="fill:#1F212B;"/>
		</g>
		<path d="M55.768,66h-9c-0.276,0-0.5-0.224-0.5-0.5s0.224-0.5,0.5-0.5h9c0.276,0,0.5,0.224,0.5,0.5    S56.044,66,55.768,66z" style="fill:#1F212B;"/>
		<path d="M47.768,80c-0.276,0-0.5-0.224-0.5-0.5v-11c0-0.276,0.224-0.5,0.5-0.5s0.5,0.224,0.5,0.5v11    C48.268,79.776,48.044,80,47.768,80z" style="fill:#1F212B;"/>
		<path d="M47.768,84c-0.276,0-0.5-0.224-0.5-0.5v-2c0-0.276,0.224-0.5,0.5-0.5s0.5,0.224,0.5,0.5v2    C48.268,83.776,48.044,84,47.768,84z" style="fill:#1F212B;"/>
	</g>
</g>
<g id="plus">
</g>
<g id="multiple">
</g>
<g id="arrow_top">
</g>
<g id="arrow_bottom">
</g>
<g id="minus">
</g>
<g id="synchronize">
</g>
<g id="refresh_1_">
</g>
<g id="left_arrow">
</g>
<g id="scale">
</g>
<g id="right_arrow">
</g>
<g id="expand">
</g>
<g id="play">
</g>
<g id="back">
</g>
<g id="next">
</g>
<g id="upload">
</g>
<g id="download">
</g>
<g id="shared">
</g>
<g id="checked">
</g>
<g id="file">
</g>
<g id="zip_file">
</g>
<g id="document_file">
</g>
<g id="image_file">
</g>
<g id="exel_file">
</g>
<g id="pdf_file">
</g>
<g id="folder">
</g>
<g id="clipboard">
</g>
<g id="adress">
</g>
<g id="news">
</g>
<g id="box">
</g>
<g id="wooden_box">
</g>
<g id="calendar">
</g>
<g id="clock">
</g>
<g id="hourglass">
</g>
<g id="envelope">
</g>
<g id="mail_plane">
</g>
<g id="note">
</g>
<g id="malbox">
</g>
<g id="key">
</g>
<g id="lock_close">
</g>
<g id="lock_open">
</g>
<g id="toolbox">
</g>
<g id="suitcase">
</g>
<g id="Idea">
</g>
<g id="dashboard">
</g>
<g id="home">
</g>
<g id="chat">
</g>
<g id="phone">
</g>
<g id="iphone">
</g>
<g id="monitor">
</g>
<g id="laptop">
</g>
<g id="window">
</g>
<g id="html_window">
</g>
<g id="router">
</g>
<g id="safe">
</g>
<g id="user_male">
</g>
<g id="user_female">
</g>
<g id="camera">
</g>
<g id="compass">
</g>
<g id="star">
</g>
<g id="picture">
</g>
<g id="preferences">
</g>
<g id="settings">
</g>
<g id="options">
</g>
<g id="printer">
</g>
<g id="save">
</g>
<g id="help">
</g>
<g id="marker">
</g>
<g id="map">
</g>
<g id="flag_1_">
</g>
<g id="shop">
</g>
<g id="cart">
</g>
<g id="wallet">
</g>
<g id="cards">
</g>
<g id="price">
</g>
<g id="shopping_bag">
</g>
<g id="dollars">
</g>
<g id="basket">
</g>
<g id="delivery">
</g>
<g id="bill">
</g>
<g id="cash_machine">
</g>
<g id="bill_machine">
</g>
<g id="calculator">
</g>
<g id="purse">
</g>
<g id="geometry">
</g>
<g id="setsquare">
</g>
<g id="coins">
</g>
<g id="cert">
</g>
<g id="goal">
</g>
<g id="lab">
</g>
<g id="cup">
</g>
<g id="money">
</g>
<g id="servers">
</g>
<g id="diamond">
</g>
<g id="mouse">
</g>
</svg>
