<?xml version="1.0" encoding="utf-8"?>
<!-- Generator: Adobe Illustrator 21.0.0, SVG Export Plug-In . SVG Version: 6.00 Build 0)  -->
<svg xmlns="http://www.w3.org/2000/svg" xmlns:xlink="http://www.w3.org/1999/xlink" version="1.1" x="0px" y="0px" viewBox="0 0 100 100" style="enable-background:new 0 0 100 100;" xml:space="preserve" width="400px" height="400px">

<g id="bin">
	<g>
		<g>
			<g>
				<path d="M73,30L73,30H27h-5v5l5,5l0,36.308C27,83.288,32.295,87,38.766,87h22.269C67.616,87,73,83.288,73,76.308      V39.917L78,35v-5H73z" style="fill:#8B8BC1;"/>
				<path d="M61.035,88H38.766C31.13,88,26,83.301,26,76.308V40.414l-4.707-4.707C21.105,35.52,21,35.265,21,35v-5      c0-0.552,0.448-1,1-1h56c0.552,0,1,0.448,1,1v5c0,0.268-0.108,0.525-0.299,0.713L74,40.336v35.972C74,83.301,68.79,88,61.035,88      z M23,34.586l4.707,4.707C27.895,39.48,28,39.735,28,40v36.308C28,83.461,33.8,86,38.766,86h22.269      C66.093,86,72,83.461,72,76.308V39.917c0-0.268,0.108-0.525,0.299-0.713L77,34.581V31H23V34.586z" style="fill:#1F212B;"/>
			</g>
		</g>
		<g>
			<g>
				<path d="M32.5,60.5l0-19.583c0-1.375,1.125-2.5,2.5-2.5h0c1.375,0,2.5,1.125,2.5,2.5v18.75v15.25      c0,1.375-1.125,2.5-2.5,2.5h0c-1.375,0-2.5-1.125-2.5-2.5l0-3.417" style="fill:#6869AD;"/>
				<path d="M35,77.917c-1.654,0-3-1.346-3-3V71.5c0-0.276,0.224-0.5,0.5-0.5s0.5,0.224,0.5,0.5v3.417      c0,1.103,0.897,2,2,2s2-0.897,2-2v-34c0-1.103-0.897-2-2-2s-2,0.897-2,2V60.5c0,0.276-0.224,0.5-0.5,0.5S32,60.776,32,60.5      V40.917c0-1.654,1.346-3,3-3s3,1.346,3,3v34C38,76.571,36.654,77.917,35,77.917z" style="fill:#1F212B;"/>
			</g>
			<path d="M32.5,66c-0.276,0-0.5-0.224-0.5-0.5v-3c0-0.276,0.224-0.5,0.5-0.5s0.5,0.224,0.5,0.5v3     C33,65.776,32.776,66,32.5,66z" style="fill:#1F212B;"/>
			<g>
				<path d="M45,77.5L45,77.5c-1.375,0-2.5-1.125-2.5-2.5V41c0-1.375,1.125-2.5,2.5-2.5h0c1.375,0,2.5,1.125,2.5,2.5v34      C47.5,76.375,46.375,77.5,45,77.5z" style="fill:#6869AD;"/>
				<path d="M45,78c-1.654,0-3-1.346-3-3V41c0-1.654,1.346-3,3-3s3,1.346,3,3v34C48,76.654,46.654,78,45,78z M45,39      c-1.103,0-2,0.897-2,2v34c0,1.103,0.897,2,2,2s2-0.897,2-2V41C47,39.897,46.103,39,45,39z" style="fill:#1F212B;"/>
			</g>
			<g>
				<path d="M55,77.5L55,77.5c-1.375,0-2.5-1.125-2.5-2.5V41c0-1.375,1.125-2.5,2.5-2.5h0c1.375,0,2.5,1.125,2.5,2.5v34      C57.5,76.375,56.375,77.5,55,77.5z" style="fill:#6869AD;"/>
				<path d="M55,78c-1.654,0-3-1.346-3-3V41c0-1.654,1.346-3,3-3s3,1.346,3,3v34C58,76.654,56.654,78,55,78z M55,39      c-1.103,0-2,0.897-2,2v34c0,1.103,0.897,2,2,2s2-0.897,2-2V41C57,39.897,56.103,39,55,39z" style="fill:#1F212B;"/>
			</g>
			<g>
				<path d="M65,77.5L65,77.5c-1.375,0-2.5-1.125-2.5-2.5V41c0-1.375,1.125-2.5,2.5-2.5l0,0c1.375,0,2.5,1.125,2.5,2.5      v34C67.5,76.375,66.375,77.5,65,77.5z" style="fill:#6869AD;"/>
				<path d="M65,78c-1.654,0-3-1.346-3-3V41c0-1.654,1.346-3,3-3s3,1.346,3,3v34C68,76.654,66.654,78,65,78z M65,39      c-1.103,0-2,0.897-2,2v34c0,1.103,0.897,2,2,2s2-0.897,2-2V41C67,39.897,66.103,39,65,39z" style="fill:#1F212B;"/>
			</g>
		</g>
		<g>
			<path d="M78,30v-0.237C78,22.749,75.127,19,66.727,19H33.273C24.873,19,22,22.749,22,29.763V30H78z" style="fill:#A3A3CD;"/>
			<path d="M78,31H22c-0.552,0-1-0.448-1-1v-0.237C21,21.628,24.785,18,33.272,18h33.455C75.215,18,79,21.628,79,29.763     V30C79,30.552,78.552,31,78,31z M23.013,29h53.975c-0.216-6.38-3.237-9-10.26-9H33.272C26.25,20,23.229,22.62,23.013,29z" style="fill:#1F212B;"/>
		</g>
		<path d="M78.5,34h-55c-0.276,0-0.5-0.224-0.5-0.5s0.224-0.5,0.5-0.5h55c0.276,0,0.5,0.224,0.5,0.5S78.776,34,78.5,34z    " style="fill:#1F212B;"/>
		<path d="M71.5,83h-42c-0.276,0-0.5-0.224-0.5-0.5s0.224-0.5,0.5-0.5h42c0.276,0,0.5,0.224,0.5,0.5S71.776,83,71.5,83z    " style="fill:#1F212B;"/>
		<path d="M60,20H40c-0.552,0-1-0.448-1-1v-2.646C39,13.401,41.309,11,44.146,11h11.708C58.691,11,61,13.401,61,16.354    V19C61,19.552,60.552,20,60,20z M41,18h18v-1.646C59,14.504,57.589,13,55.854,13H44.146C42.411,13,41,14.504,41,16.354V18z" style="fill:#1F212B;"/>
		<path d="M68.5,27h-46c-0.276,0-0.5-0.224-0.5-0.5s0.224-0.5,0.5-0.5h46c0.276,0,0.5,0.224,0.5,0.5S68.776,27,68.5,27z    " style="fill:#1F212B;"/>
		<path d="M73,58.917c-0.552,0-1-0.448-1-1v-14c0-0.552,0.448-1,1-1c2.757,0,5,2.243,5,5v6    C78,56.673,75.757,58.917,73,58.917z M74,45.088v11.657c1.164-0.413,2-1.525,2-2.829v-6C76,46.613,75.164,45.5,74,45.088z" style="fill:#1F212B;"/>
		<path d="M27,58.917c-2.757,0-5-2.243-5-5v-6c0-2.757,2.243-5,5-5c0.552,0,1,0.448,1,1v14    C28,58.469,27.552,58.917,27,58.917z M26,45.088c-1.164,0.413-2,1.525-2,2.829v6c0,1.304,0.836,2.416,2,2.829V45.088z" style="fill:#1F212B;"/>
	</g>
	<path d="M74.5,27h-3c-0.276,0-0.5-0.224-0.5-0.5s0.224-0.5,0.5-0.5h3c0.276,0,0.5,0.224,0.5,0.5S74.776,27,74.5,27z" style="fill:#1F212B;"/>
</g>
<g id="full_bin">
</g>
<g id="bookmark">
</g>
<g id="edit">
</g>
<g id="pen">
</g>
<g id="search">
</g>
<g id="plus">
</g>
<g id="multiple">
</g>
<g id="arrow_top">
</g>
<g id="arrow_bottom">
</g>
<g id="minus">
</g>
<g id="synchronize">
</g>
<g id="refresh_1_">
</g>
<g id="left_arrow">
</g>
<g id="scale">
</g>
<g id="right_arrow">
</g>
<g id="expand">
</g>
<g id="play">
</g>
<g id="back">
</g>
<g id="next">
</g>
<g id="upload">
</g>
<g id="download">
</g>
<g id="shared">
</g>
<g id="checked">
</g>
<g id="file">
</g>
<g id="zip_file">
</g>
<g id="document_file">
</g>
<g id="image_file">
</g>
<g id="exel_file">
</g>
<g id="pdf_file">
</g>
<g id="folder">
</g>
<g id="clipboard">
</g>
<g id="adress">
</g>
<g id="news">
</g>
<g id="box">
</g>
<g id="wooden_box">
</g>
<g id="calendar">
</g>
<g id="clock">
</g>
<g id="hourglass">
</g>
<g id="envelope">
</g>
<g id="mail_plane">
</g>
<g id="note">
</g>
<g id="malbox">
</g>
<g id="key">
</g>
<g id="lock_close">
</g>
<g id="lock_open">
</g>
<g id="toolbox">
</g>
<g id="suitcase">
</g>
<g id="Idea">
</g>
<g id="dashboard">
</g>
<g id="home">
</g>
<g id="chat">
</g>
<g id="phone">
</g>
<g id="iphone">
</g>
<g id="monitor">
</g>
<g id="laptop">
</g>
<g id="window">
</g>
<g id="html_window">
</g>
<g id="router">
</g>
<g id="safe">
</g>
<g id="user_male">
</g>
<g id="user_female">
</g>
<g id="camera">
</g>
<g id="compass">
</g>
<g id="star">
</g>
<g id="picture">
</g>
<g id="preferences">
</g>
<g id="settings">
</g>
<g id="options">
</g>
<g id="printer">
</g>
<g id="save">
</g>
<g id="help">
</g>
<g id="marker">
</g>
<g id="map">
</g>
<g id="flag_1_">
</g>
<g id="shop">
</g>
<g id="cart">
</g>
<g id="wallet">
</g>
<g id="cards">
</g>
<g id="price">
</g>
<g id="shopping_bag">
</g>
<g id="dollars">
</g>
<g id="basket">
</g>
<g id="delivery">
</g>
<g id="bill">
</g>
<g id="cash_machine">
</g>
<g id="bill_machine">
</g>
<g id="calculator">
</g>
<g id="purse">
</g>
<g id="geometry">
</g>
<g id="setsquare">
</g>
<g id="coins">
</g>
<g id="cert">
</g>
<g id="goal">
</g>
<g id="lab">
</g>
<g id="cup">
</g>
<g id="money">
</g>
<g id="servers">
</g>
<g id="diamond">
</g>
<g id="mouse">
</g>
</svg>
