<?xml version="1.0" encoding="iso-8859-1"?>
<!-- Generator: Adobe Illustrator 16.0.0, SVG Export Plug-In . SVG Version: 6.00 Build 0)  -->
<!DOCTYPE svg PUBLIC "-//W3C//DTD SVG 1.1//EN" "http://www.w3.org/Graphics/SVG/1.1/DTD/svg11.dtd">
<svg version="1.1" id="Capa_1" xmlns="http://www.w3.org/2000/svg" xmlns:xlink="http://www.w3.org/1999/xlink" x="0px" y="0px"
	 width="193.319px" height="193.319px" viewBox="0 0 193.319 193.319" style="enable-background:new 0 0 193.319 193.319;"
	 xml:space="preserve">
<g>
	<g>
		<path d="M40.629,43.598c9.772,0,17.708-11.34,17.708-21.119c0-9.781-7.935-17.71-17.708-17.71c-9.784,0-17.717,7.935-17.717,17.71
			C22.912,32.258,30.845,43.598,40.629,43.598z"/>
		<path d="M152.695,43.598c9.773,0,17.71-11.34,17.71-21.119c0-9.781-7.937-17.71-17.71-17.71c-9.781,0-17.719,7.935-17.719,17.71
			C134.977,32.258,142.914,43.598,152.695,43.598z"/>
		<path d="M60.991,148.868c-0.236-0.306-0.465-0.623-0.687-0.936c-0.887-1.241-1.728-2.512-2.484-3.836
			c-0.14-0.252-0.274-0.492-0.413-0.744c-0.7-1.279-1.319-2.6-1.888-3.939c-0.209-0.492-0.405-0.972-0.596-1.472
			c-0.543-1.418-1.036-2.857-1.435-4.338c-0.059-0.232-0.112-0.451-0.166-0.681c-0.369-1.466-0.652-2.966-0.871-4.487
			c-0.061-0.448-0.124-0.896-0.173-1.357c-0.191-1.674-0.325-3.376-0.325-5.1c0-1.729,0.133-3.424,0.325-5.104
			c0.049-0.454,0.112-0.903,0.173-1.357c0.224-1.515,0.501-3.021,0.871-4.481c0.054-0.23,0.111-0.454,0.166-0.684
			c0.399-1.483,0.892-2.917,1.435-4.34c0.191-0.492,0.387-0.979,0.596-1.467c0.569-1.346,1.188-2.664,1.888-3.938
			c0.133-0.247,0.273-0.499,0.413-0.745c0.741-1.291,1.564-2.539,2.421-3.742V62.337c0.694,0.194,1.345,0.386,1.944,0.567
			l3.049,27.409c2.604-2.588,5.496-4.897,8.694-6.785l2.271-1.4l0.112,0.068c0.647-0.336,1.342-0.583,2.015-0.887l-2.715-24.44
			c-0.042-0.342-0.22-0.61-0.304-0.935c-0.128-0.515-0.241-1.02-0.483-1.492c-0.185-0.353-0.448-0.627-0.684-0.936
			c-0.313-0.413-0.598-0.824-1.004-1.166c-0.317-0.263-0.687-0.424-1.044-0.632c-0.362-0.213-0.658-0.5-1.062-0.645
			c-0.632-0.23-14.73-5.283-27.686-5.951l-1.781,3.565h-0.044l4.711,36.728l-5.603,9.789l-5.604-9.789l4.718-36.733h-0.056
			l-1.776-3.565c-12.955,0.668-27.048,5.722-27.679,5.951C9.822,51.201,9.521,51.5,9.16,51.713
			c-0.357,0.203-0.722,0.359-1.028,0.616c-0.416,0.348-0.712,0.775-1.037,1.198c-0.225,0.304-0.476,0.567-0.658,0.903
			c-0.246,0.477-0.353,0.994-0.493,1.519c-0.084,0.314-0.257,0.583-0.297,0.914l-5.605,50.431c-0.423,3.84,2.343,7.304,6.187,7.731
			c0.266,0.029,0.522,0.044,0.786,0.044c3.519,0,6.549-2.648,6.948-6.233l5.103-45.931c0.593-0.181,1.251-0.373,1.945-0.567v47.806
			l-5.576,69.321c-0.369,4.628,3.078,8.677,7.704,9.049c0.229,0.019,0.455,0.028,0.684,0.028c4.331,0,8.015-3.338,8.368-7.732
			l5.037-62.649c1.047,0.471,2.19,0.733,3.4,0.733c1.209,0,2.353-0.263,3.39-0.72l5.038,62.646c0.353,4.394,4.034,7.731,8.367,7.731
			c0.229,0,0.453-0.005,0.684-0.027c4.625-0.371,8.073-4.427,7.704-9.05l-2.208-27.464
			C62.695,150.997,61.809,149.964,60.991,148.868z"/>
		<path d="M187.673,56.868c-0.044-0.342-0.22-0.61-0.305-0.935c-0.126-0.515-0.242-1.02-0.481-1.492
			c-0.187-0.353-0.451-0.627-0.686-0.936c-0.312-0.413-0.597-0.824-1-1.166c-0.317-0.263-0.691-0.424-1.051-0.632
			c-0.357-0.213-0.652-0.5-1.058-0.645c-0.636-0.23-14.731-5.283-27.688-5.951l-1.778,3.565h-0.044l4.717,36.728l-5.604,9.789
			l-5.603-9.789l4.716-36.733h-0.052l-1.779-3.565c-12.952,0.668-27.048,5.722-27.679,5.951c-0.41,0.145-0.709,0.443-1.073,0.656
			c-0.35,0.208-0.715,0.359-1.022,0.622c-0.416,0.347-0.71,0.774-1.04,1.198c-0.225,0.304-0.477,0.566-0.656,0.903
			c-0.246,0.477-0.35,0.993-0.493,1.518c-0.081,0.315-0.257,0.583-0.295,0.914l-2.718,24.44c0.673,0.304,1.368,0.556,2.018,0.887
			l0.108-0.068l2.272,1.4c3.194,1.888,6.084,4.203,8.694,6.785l3.048-27.409c0.599-0.181,1.253-0.373,1.948-0.567v33.782
			c0.854,1.209,1.68,2.451,2.418,3.742c0.145,0.246,0.275,0.493,0.416,0.745c0.7,1.279,1.321,2.593,1.888,3.938
			c0.208,0.488,0.405,0.975,0.597,1.467c0.542,1.423,1.036,2.856,1.434,4.34c0.061,0.229,0.111,0.453,0.164,0.684
			c0.372,1.466,0.651,2.967,0.872,4.481c0.061,0.454,0.126,0.903,0.173,1.357c0.191,1.681,0.323,3.376,0.323,5.104
			c0,1.724-0.132,3.426-0.323,5.1c-0.047,0.461-0.112,0.909-0.173,1.357c-0.225,1.521-0.5,3.021-0.872,4.487
			c-0.053,0.229-0.109,0.448-0.164,0.681c-0.397,1.48-0.892,2.92-1.434,4.338c-0.191,0.5-0.389,0.979-0.597,1.472
			c-0.566,1.34-1.188,2.665-1.888,3.939c-0.137,0.24-0.271,0.492-0.416,0.744c-0.755,1.324-1.597,2.595-2.479,3.836
			c-0.229,0.323-0.454,0.63-0.688,0.936c-0.821,1.083-1.709,2.129-2.623,3.142l-2.205,27.459c-0.372,4.628,3.074,8.68,7.705,9.05
			c0.229,0.017,0.453,0.027,0.683,0.027c4.329,0,8.012-3.333,8.367-7.731l5.036-62.655c1.038,0.471,2.182,0.733,3.391,0.733
			c1.21,0,2.354-0.263,3.39-0.72l5.038,62.646c0.35,4.394,4.034,7.731,8.366,7.731c0.229,0,0.454-0.005,0.684-0.027
			c4.626-0.371,8.071-4.427,7.704-9.05l-5.57-69.325V62.342c0.695,0.195,1.349,0.386,1.942,0.566l5.106,45.938
			c0.398,3.578,3.433,6.227,6.949,6.227c0.265,0,0.521-0.011,0.783-0.043c3.852-0.428,6.617-3.886,6.188-7.732L187.673,56.868z"/>
		<path d="M66.753,121.984c0-14.921,10.998-27.293,25.311-29.518v6.508l18.403-11.502L92.064,75.971v7.193
			c-19.408,2.292-34.512,18.81-34.512,38.821c0,14.053,7.468,26.364,18.632,33.253l9.021-5.636
			C74.383,145.099,66.753,134.412,66.753,121.984z"/>
		<path d="M117.139,88.729l-9.019,5.636c10.818,4.506,18.452,15.182,18.452,27.62c0,14.922-10.997,27.294-25.312,29.517v-6.505
			l-18.403,11.501l18.403,11.501v-7.195c19.409-2.293,34.511-18.808,34.511-38.818C135.771,107.928,128.296,95.621,117.139,88.729z"
			/>
	</g>
</g>
<g>
</g>
<g>
</g>
<g>
</g>
<g>
</g>
<g>
</g>
<g>
</g>
<g>
</g>
<g>
</g>
<g>
</g>
<g>
</g>
<g>
</g>
<g>
</g>
<g>
</g>
<g>
</g>
<g>
</g>
</svg>
