<svg viewBox="-20 0 511 512" xmlns="http://www.w3.org/2000/svg"><path d="m168.328125 199.390625c4.148437 0 7.515625-3.367187 7.515625-7.515625s-3.367188-7.515625-7.515625-7.515625h-72.140625c-4.152344 0-7.515625 3.367187-7.515625 7.515625s3.363281 7.515625 7.515625 7.515625zm0 0"/><path d="m296.578125 199.390625c4.152344 0 7.515625-3.367187 7.515625-7.515625s-3.363281-7.515625-7.515625-7.515625h-96.1875c-4.148437 0-7.515625 3.367187-7.515625 7.515625s3.367188 7.515625 7.515625 7.515625zm0 0"/><path d="m48.59375 231.953125c0 4.148437 3.363281 7.515625 7.515625 7.515625h216.421875c4.152344 0 7.515625-3.367188 7.515625-7.515625s-3.363281-7.515625-7.515625-7.515625h-216.421875c-4.152344 0-7.515625 3.367188-7.515625 7.515625zm0 0"/><path d="m56.109375 279.546875h40.078125c4.148438 0 7.515625-3.367187 7.515625-7.515625s-3.367187-7.515625-7.515625-7.515625h-40.078125c-4.152344 0-7.515625 3.367187-7.515625 7.515625s3.363281 7.515625 7.515625 7.515625zm0 0"/><path d="m247.984375 272.03125c0-4.148438-3.363281-7.515625-7.515625-7.515625h-112.21875c-4.152344 0-7.515625 3.367187-7.515625 7.515625s3.363281 7.515625 7.515625 7.515625h112.21875c4.152344 0 7.515625-3.367187 7.515625-7.515625zm0 0"/><path d="m96.1875 328.640625c-4.152344 0-7.515625 3.367187-7.515625 7.515625 0 4.152344 3.363281 7.515625 7.515625 7.515625h24.046875c4.148437 0 7.515625-3.363281 7.515625-7.515625 0-4.148438-3.367188-7.515625-7.515625-7.515625zm0 0"/><path d="m152.296875 328.640625c-4.152344 0-7.515625 3.367187-7.515625 7.515625 0 4.152344 3.363281 7.515625 7.515625 7.515625h64.125c4.148437 0 7.515625-3.363281 7.515625-7.515625 0-4.148438-3.367188-7.515625-7.515625-7.515625zm0 0"/><path d="m56.109375 383.75h136.265625c4.148438 0 7.515625-3.363281 7.515625-7.515625 0-4.148437-3.367187-7.515625-7.515625-7.515625h-136.265625c-4.152344 0-7.515625 3.367188-7.515625 7.515625 0 4.152344 3.363281 7.515625 7.515625 7.515625zm0 0"/><path d="m56.109375 423.828125h120.234375c4.148438 0 7.515625-3.363281 7.515625-7.515625 0-4.148438-3.367187-7.515625-7.515625-7.515625h-120.234375c-4.152344 0-7.515625 3.367187-7.515625 7.515625 0 4.152344 3.363281 7.515625 7.515625 7.515625zm0 0"/><path d="m453.300781 170.1875c-14.769531-12.925781-35.929687-15.164062-61.1875-6.484375-2.582031.886719-5.203125 1.886719-7.863281 2.996094v-111.089844c0-4.152344-3.363281-7.515625-7.515625-7.515625h-217.054687c-1.8125-26.820312-24.195313-48.09375-51.46875-48.09375-27.273438 0-49.65625 21.273438-51.46875 48.09375h-23.679688c-4.148438 0-7.511719 3.363281-7.511719 7.515625v24.546875h-17.535156c-4.152344 0-7.515625 3.363281-7.515625 7.515625v200.390625c0 4.148438 3.363281 7.515625 7.515625 7.515625 4.148437 0 7.515625-3.367187 7.515625-7.515625v-192.875h41.078125v36.570312c0 19.613282 15.957031 35.570313 35.570313 35.570313 19.613281 0 35.570312-15.957031 35.570312-35.570313v-36.570312h145.28125v56.609375c0 4.148437 3.363281 7.515625 7.515625 7.515625h56.609375v35.574219c-4.515625 3.453125-9.058594 7.125-13.609375 11.007812-1.359375 1.160157-2.261719 2.769531-2.542969 4.535157l-4.53125 28.539062c-2.496094-3.25-5.511718-6.40625-9.144531-9.148438-3.039063-2.289062-7.308594-1.945312-9.945313.796876-24.621093 25.644531-44.246093 53.1875-55.257812 77.542968-14.59375 32.289063-10.484375 50.878906-2.902344 61.355469l-44.46875 41.289063c-2.804687 2.601562-3.175781 7.035156-.855468 10.074218 2.65625 3.46875 7.878906 3.914063 11.082031.9375l46.015625-42.726562c4.574218 1.953125 10.019531 2.941406 16.308594 2.941406h.039062c17.664062-.011719 42.246094-7.917969 69.816406-22.351562v137.289062h-321.628906v-173.167969c0-4.152343-3.367188-7.515625-7.515625-7.515625s-7.515625 3.363282-7.515625 7.515625v180.683594c0 4.152344 3.367188 7.515625 7.515625 7.515625h336.65625c4.152344 0 7.515625-3.363281 7.515625-7.515625v-16.53125h24.546875c4.152344 0 7.515625-3.363281 7.515625-7.515625v-150.128906c15.34375-11.171875 29.671875-23.3125 42.101562-35.769532 2.730469-2.738281 2.9375-7.101562.480469-10.085937l-12.464843-15.132813c8.378906-1.058593 19.691406-1.90625 29.804687-.683593 2.742187.335937 5.425781-.859375 7.023437-3.097657 27.507813-38.605468 28.257813-72.46875 2.105469-95.351562zm-345.089843-155.15625c18.980468 0 34.628906 14.535156 36.398437 33.0625h-72.796875c1.769531-18.527344 17.414062-33.0625 36.398438-33.0625zm-67.632813 65.125v-17.03125h16.03125v17.03125zm72.140625 51.601562c0 11.324219-9.214844 20.539063-20.539062 20.539063-11.328126 0-20.539063-9.214844-20.539063-20.539063v-36.570312h41.078125zm175.34375 12.523438v-38.46875l38.46875 38.46875zm64.113281 7.261719c-.066406-1.886719-.851562-3.722657-2.1875-5.058594l-64.125-64.125c-1.394531-1.394531-3.347656-2.203125-5.316406-2.203125h-152.796875v-8.515625c0-4.152344-3.367188-7.515625-7.515625-7.515625-4.152344 0-7.515625 3.363281-7.515625 7.515625v8.515625h-41.078125v-17.03125h297.578125v110.796875c-5.578125 3.007813-11.265625 6.433594-17.03125 10.253906v-32.378906c0-.085937-.011719-.167969-.011719-.253906zm17.042969 321.378906h-17.03125v-121.585937c5.746094-3.375 11.433594-6.917969 17.03125-10.609376zm72.183594-219.640625c-20.234375-1.425781-41.765625 3.179688-42.738282 3.390625-2.5625.558594-4.644531 2.40625-5.503906 4.882813-.859375 2.472656-.367187 5.21875 1.300782 7.238281l16.382812 19.894531c-44.210938 42.222656-109.851562 78.296875-143.511719 78.320312-.007812 0-.019531 0-.027343 0-.992188 0-2.058594-.039062-3.15625-.128906l50.890624-47.253906h29.109376c4.152343 0 7.515624-3.367188 7.515624-7.515625s-3.363281-7.515625-7.515624-7.515625h-12.925782l98.195313-91.179688c3.042969-2.824218 3.21875-7.578124.394531-10.621093-2.820312-3.042969-7.578125-3.21875-10.621094-.394531l-40.050781 37.191406 4.441406-22.195313c.8125-4.070312-1.828125-8.027343-5.894531-8.84375-4.070312-.808593-8.03125 1.828125-8.84375 5.898438l-8.015625 40.078125c-.148437.730468-.175781 1.460937-.113281 2.171875l-110.300782 102.421875c-11.300781-19.9375 10.542969-66.964844 52.746094-112.710938 7.292969 8.398438 9.550782 18.964844 9.570313 19.070313.703125 3.523437 3.792969 6.050781 7.371093 6.050781h.144532c3.640625-.070312 6.707031-2.742188 7.277344-6.335938l7.886718-49.648437c36.667969-30.738281 83.652344-55.347656 107.992188-34.046875 19.382812 16.957031 18.703125 41.09375-2 71.78125zm0 0"/></svg>