<?xml version="1.0"?>
<svg xmlns="http://www.w3.org/2000/svg" viewBox="0 0 64 64" width="512" height="512"><g id="draft"><path d="M57,7H21a5.006,5.006,0,0,0-5,5V29H7a5.006,5.006,0,0,0-5,5V52a5.006,5.006,0,0,0,5,5H43a5.006,5.006,0,0,0,5-5V35h9a5.006,5.006,0,0,0,5-5V12A5.006,5.006,0,0,0,57,7ZM21,9H57a3,3,0,0,1,3,3v.406L39,23.861,18,12.406V12A3,3,0,0,1,21,9ZM43,29H28.414L34,23.413l4.52,2.465a1,1,0,0,0,.958,0L44,23.413,53.586,33H47.9A5.009,5.009,0,0,0,43,29ZM18,14.685l14.171,7.73L25.586,29H18ZM7,31H43a3,3,0,0,1,3,3v.406L25,45.861,4,34.406V34A3,3,0,0,1,7,31ZM24.521,47.878a1,1,0,0,0,.958,0L30,45.413,39.586,55H10.414L20,45.413ZM4,52V36.685l14.171,7.73L7.586,55H7A3,3,0,0,1,4,52Zm39,3h-.586L31.829,44.415,46,36.685V52A3,3,0,0,1,43,55ZM57,33h-.586L45.829,22.415,60,14.685V30A3,3,0,0,1,57,33Z"/><rect x="12" y="12" width="2" height="2"/><path d="M7,14h3V12H6a1,1,0,0,0-1,1V27H7Z"/><rect x="50" y="50" width="2" height="2"/><path d="M57,50H54v2h4a1,1,0,0,0,1-1V37H57Z"/></g></svg>
