<svg height="512" viewBox="0 0 64 64" width="512" xmlns="http://www.w3.org/2000/svg"><g id="Handcuff-2" data-name="Handcuff"><path d="m3 17v13l4 6v25h17v-25l3-6v-17.5a2.49 2.49 0 0 0 -2-2.45 2.734 2.734 0 0 0 -.5-.05 2.5 2.5 0 0 0 -2.5 2.5v-4a2.49 2.49 0 0 0 -2-2.45 2.734 2.734 0 0 0 -.5-.05 2.5 2.5 0 0 0 -2.5 2.5v-3a2.49 2.49 0 0 0 -2-2.45 2.734 2.734 0 0 0 -.5-.05 2.5 2.5 0 0 0 -2.5 2.5v4a2.49 2.49 0 0 0 -2-2.45 2.734 2.734 0 0 0 -.5-.05 2.5 2.5 0 0 0 -2.5 2.5v4.68a2.772 2.772 0 0 0 -1-.18 3 3 0 0 0 -3 3z" fill="#ffc477"/><g fill="#ffa733"><path d="m6 43h2v-7a1.006 1.006 0 0 0 -.168-.555l-3.832-5.745v-12.7a2 2 0 0 1 2-2 1.758 1.758 0 0 1 .639.113 1.912 1.912 0 0 1 .774.474 1.983 1.983 0 0 1 .587 1.413v5a1 1 0 0 0 .105.447l1.895 3.789v2.764h2v-3a1 1 0 0 0 -.105-.447l-1.895-3.789v-4.764a3.973 3.973 0 0 0 -1.173-2.827 3.839 3.839 0 0 0 -1.518-.944 3.651 3.651 0 0 0 -1.309-.229 4 4 0 0 0 -4 4v13a1.006 1.006 0 0 0 .168.555l3.832 5.745z"/><path d="m25 10.05v11.95h2v-9.5a2.49 2.49 0 0 0 -2-2.45z"/><path d="m20 6.05v15.95h2v-13.5a2.49 2.49 0 0 0 -2-2.45z"/><path d="m15 3.05v18.95h2v-16.5a2.49 2.49 0 0 0 -2-2.45z"/><path d="m10 7.05v14.95h2v-12.5a2.49 2.49 0 0 0 -2-2.45z"/></g><path d="m61 17v13l-4 6v25h-17v-25l-3-6v-17.5a2.49 2.49 0 0 1 2-2.45 2.734 2.734 0 0 1 .5-.05 2.5 2.5 0 0 1 2.5 2.5v-4a2.49 2.49 0 0 1 2-2.45 2.734 2.734 0 0 1 .5-.05 2.5 2.5 0 0 1 2.5 2.5v-3a2.49 2.49 0 0 1 2-2.45 2.734 2.734 0 0 1 .5-.05 2.5 2.5 0 0 1 2.5 2.5v4a2.49 2.49 0 0 1 2-2.45 2.734 2.734 0 0 1 .5-.05 2.5 2.5 0 0 1 2.5 2.5v4.68a2.772 2.772 0 0 1 1-.18 3 3 0 0 1 3 3z" fill="#ffc477"/><path d="m58 43h-18a1 1 0 0 0 -1 1v6a1 1 0 0 0 1 1h18a1 1 0 0 0 1-1v-6a1 1 0 0 0 -1-1z" fill="#a7a9ac"/><path d="m24 43h-18a1 1 0 0 0 -1 1v6a1 1 0 0 0 1 1h18a1 1 0 0 0 1-1v-6a1 1 0 0 0 -1-1z" fill="#a7a9ac"/><path d="m7 51h17v2h-17z" fill="#ffb655"/><path d="m40 51h17v2h-17z" fill="#ffb655"/><path d="m58 43h-2v-7a1.006 1.006 0 0 1 .168-.555l3.832-5.745v-12.7a2 2 0 0 0 -2-2 1.758 1.758 0 0 0 -.639.113 1.912 1.912 0 0 0 -.774.474 1.983 1.983 0 0 0 -.587 1.413v5a1 1 0 0 1 -.1.447l-1.9 3.789v2.764h-2v-3a1 1 0 0 1 .1-.447l1.9-3.789v-4.764a3.973 3.973 0 0 1 1.173-2.827 3.839 3.839 0 0 1 1.518-.944 3.651 3.651 0 0 1 1.309-.229 4 4 0 0 1 4 4v13a1.006 1.006 0 0 1 -.168.555l-3.832 5.745z" fill="#ffa733"/><path d="m33 51h-2a4 4 0 0 1 0-8h2a4 4 0 0 1 0 8zm-2-6a2 2 0 0 0 0 4h2a2 2 0 0 0 0-4z" fill="#898890"/><path d="m25 46h6v2h-6z" fill="#787680"/><path d="m33 46h6v2h-6z" fill="#787680"/><path d="m39 10.05v11.95h-2v-9.5a2.49 2.49 0 0 1 2-2.45z" fill="#ffa733"/><path d="m44 6.05v15.95h-2v-13.5a2.49 2.49 0 0 1 2-2.45z" fill="#ffa733"/><path d="m49 3.05v18.95h-2v-16.5a2.49 2.49 0 0 1 2-2.45z" fill="#ffa733"/><path d="m54 7.05v14.95h-2v-12.5a2.49 2.49 0 0 1 2-2.45z" fill="#ffa733"/></g></svg>