<svg enable-background="new 0 0 110 110" height="512" viewBox="0 0 110 110" width="512" xmlns="http://www.w3.org/2000/svg"><path d="m76.7659302 26.3633366h-43.5318604c-2.4954224 0-4.5183716 2.0229492-4.5183716 4.5183105v59.534668c0 2.4953613 2.0229492 4.5183105 4.5183716 4.5183105h43.5318604c2.4954224 0 4.5183716-2.0229492 4.5183716-4.5183105v-59.534668c0-2.4953613-2.0229493-4.5183105-4.5183716-4.5183105z" fill="#ededed"/><path d="m73.4380493 39.4363365h-36.8760986c-.5979614 0-1.0827637.4848633-1.0827637 1.0827637v45.8483848c0 .5981445.4848022 1.0830078 1.0827637 1.0830078h36.8760986c.5980225 0 1.0828247-.4848633 1.0828247-1.0830078v-45.8483848c0-.5979004-.4848022-1.0827637-1.0828247-1.0827637z" fill="#de594e"/><path d="m49.851997 63.721909h10.190374v9.397301h-10.190374z" fill="#f9c74b"/><path d="m71.3539047 81.5897217c-.0211258.586647-.0317078 5.0944138-.0369949 5.8606491h-32.7221146c-.005291-.7662354-.0158691-5.2740021-.0317078-5.8606491-.089859-2.7215042.2853584-7.2662964 2.8325272-9.189827 1.6857834-1.2735367 4.8723679-2.7320862 6.8171234-3.5565109.8772278-.3751831 1.5008011-.62883 1.6382065-.676445.010582-.0105743.0264168-.0105743.0264168-.0105743l5.078476 4.729805 5.0837936-4.7192307.0105476-.0105743s.6341553.2484894 1.5695381.6448288c.0211258.0051651.0475426.0157394.0687027.0263214 1.9341431.8244247 5.1471748 2.2882614 6.8329582 3.5723801 2.5471726 1.9235305 2.9170685 6.4683227 2.8325272 9.1898269z" fill="#dbd8dd"/><g fill="#feda6f"><path d="m63.636982 58.3931618c-.4665108-.1582146-1.1054573.4824715-1.4271164 1.4309158-.3216629.9484482-.2042389 1.8455086.2622681 2.003727.4665108.1582146 1.1054115-.4823456 1.4270744-1.4307899.3216629-.9484483.2042846-1.8456384-.2622261-2.0038529z"/><path d="m46.2807274 58.3931618c.4665108-.1582146 1.1054535.4824715 1.4271164 1.4309158.3216629.9484482.2042389 1.8455086-.2622681 2.003727-.4665108.1582146-1.1054115-.4823456-1.4270744-1.4307899-.3216629-.9484483-.2042847-1.8456384.2622261-2.0038529z"/><path d="m54.9588318 47.9321289c-4.5803223 0-8.2933807 4.2415085-8.2933807 9.4736633 0 5.2322426 3.7130585 10.2708359 8.2933807 10.2708359s8.2934265-5.0385933 8.2934265-10.2708359c0-5.2321548-3.7131042-9.4736633-8.2934265-9.4736633z"/></g><path d="m55.9046173 72.8843155h-1.9146538l-.9574318 1.2838287.9574318 2.0323944h1.9146538l.9572258-2.0323944z" fill="#48b29b"/><path d="m56.5879097 87.447876h-3.2814484l.6775666-11.5900192h1.9263153z" fill="#48b29b"/><path d="m60.0423737 66.8796387-5.083519 6.0069275 3.2870674 2.9027938 3.4481697-6.9571991z" fill="#ededed"/><path d="m49.8504333 66.8796387 5.1084214 6.0069275-3.3119736 2.9027938-3.4481659-6.9571991z" fill="#ededed"/><path d="m71.4380188 81.5897217c-.0211258.586647-.0317078 5.0944138-.0369949 5.8606491h-16.3452072c3.1971664-3.931694 6.161808-16.5037308 6.6480103-18.6491776.0211296.0051651.0475464.0157394.0687027.0263214 1.9341431.8244247 5.1471786 2.2882614 6.832962 3.5723801 2.5471725 1.9235306 2.9170608 6.4683228 2.8325271 9.189827z" fill="#293b44"/><path d="m38.561985 81.5897217c.0211258.586647.0317039 5.0944138.0369949 5.8606491h16.3452034c-3.1971664-3.931694-6.161808-16.5037308-6.6480103-18.6491776-.0211296.0051651-.0475464.0157394-.0687027.0263214-1.9341431.8244247-5.1471786 2.2882614-6.8329582 3.5723801-2.5471725 1.9235306-2.9170684 6.4683228-2.8325271 9.189827z" fill="#293b44"/><path d="m60.7165794 67.6766281s-1.8964348 13.5461807-5.6572685 19.7748642c0 0 4.7472038-3.5425873 7.282547-11.2509537l-.6477661-2.1306152 1.5581665-1.1856079-.6849365-3.6745605z" fill="#344d5b"/><path d="m49.2011299 67.6766281s1.9785995 13.5426941 5.7394295 19.7713776c0 0-4.8293648-3.5391006-7.3647079-11.247467l.6477661-2.1306152-1.5581665-1.1856079.6849365-3.6745605z" fill="#344d5b"/><path d="m63.5803528 48.5975494c-1.5188103-2.6747894-12.8945732-7.0428429-15.856575-1.9225044 0 0-.6456604 1.2168427-.5861778 2.3698196 0 0-2.2671661.6216621-2.0812683 2.7862434.1858978 2.1645775 1.3446732 5.3436508 1.7135391 7.2313995.3689003 1.8877449.3689003 1.8877449.3689003 1.8877449l.6872864.083313s-.162281-.9347725-.0357933-2.4044456c.0695839-.8089752.5870743-1.8296776.4212112-2.8289986-.3794212-2.28582-.2780724-3.8692894.7320442-4.3943977 0 0 2.0261612-.2699356 4.1090126.8358727.8083229.4291077 1.7785416.3849678 2.5619278-.0881424 1.2351875-.7459373 3.1369362-1.4808426 4.7331619-.311451 1.6950569 1.2415314 1.3851204 2.7030678.960495 3.5741119-.2271385.4659386-.2287598 1.001255.0063477 1.4633293.340107.668148.7288017 1.8997498.7228699 4.0341187l.6381798.0773811c-.0000001.0000001 2.4236144-9.7186011.9048385-12.3933944z" fill="#293b44"/><path d="m46.448826 31.870812h17.102352v2.342889h-17.102352z" fill="#467082"/><path d="m48.893562 15.065374h12.856075v18.366877h-12.856075z" fill="#feda6f"/><path d="m55.085083 17.4451237c-1.8277588 0-3.3094482 1.4816895-3.3094482 3.3095703 0 1.8276367 1.4816895 3.3093262 3.3094482 3.3093262 1.8276978 0 3.3093872-1.4816895 3.3093872-3.3093262 0-1.8278809-1.4816894-3.3095703-3.3093872-3.3095703z" fill="#293b44"/></svg>