<svg height="512pt" viewBox="-89 0 512 512" width="512pt" xmlns="http://www.w3.org/2000/svg"><path d="m111.074219 10h-66.597657l55.21875 96.355469 66.828126.398437zm0 0" fill="#ffd89e"/><path d="m304 502h-274c-11.046875 0-20-8.953125-20-20v-354c0-11.046875 8.953125-20 20-20h274c11.046875 0 20 8.953125 20 20v354c0 11.046875-8.953125 20-20 20zm0 0" fill="#fff"/><path d="m222.925781 10-80.230469 140h66.597657l80.230469-140zm0 0" fill="#ffc15a"/><path d="m247 374v40h-160v-40zm0 0" fill="#ffd89e"/><path d="m235.128906 266c0 37.554688-30.445312 68-68 68-37.558594 0-68-30.445312-68-68s30.441406-68 68-68c37.554688 0 68 30.445312 68 68zm0 0" fill="#60a4ff"/><path d="m167.128906 334c17.285156 0 33.066406-6.457031 45.0625-17.082031-5.390625-19.839844-23.519531-34.433594-45.0625-34.433594-21.546875 0-39.675781 14.59375-45.066406 34.433594 11.996094 10.628906 27.777344 17.082031 45.066406 17.082031zm0 0" fill="#91def5"/><path d="m188.453125 255.828125v5.332031c0 11.777344-9.546875 21.324219-21.324219 21.324219-11.78125 0-21.328125-9.546875-21.328125-21.324219v-5.332031c0-11.777344 9.546875-21.328125 21.328125-21.328125 11.777344 0 21.324219 9.550781 21.324219 21.328125zm0 0" fill="#ffddcf"/><path d="m77 374v40c0 5.523438 4.476562 10 10 10h160c5.523438 0 10-4.476562 10-10v-40c0-5.523438-4.476562-10-10-10h-160c-5.523438 0-10 4.476562-10 10zm20 10h140v20h-140zm0 0"/><path d="m127 444c-5.523438 0-10 4.476562-10 10s4.476562 10 10 10h80c5.523438 0 10-4.476562 10-10s-4.476562-10-10-10zm0 0"/><path d="m10 315c2.628906 0 5.210938-1.070312 7.070312-2.929688 1.859376-1.859374 2.929688-4.441406 2.929688-7.070312s-1.070312-5.210938-2.929688-7.070312c-1.859374-1.859376-4.441406-2.929688-7.070312-2.929688s-5.210938 1.070312-7.070312 2.929688c-1.859376 1.859374-2.929688 4.441406-2.929688 7.070312s1.070312 5.210938 2.929688 7.070312c1.859374 1.859376 4.441406 2.929688 7.070312 2.929688zm0 0"/><path d="m304 98h-53.382812l47.582031-83.027344c1.773437-3.09375 1.765625-6.902344-.023438-9.988281-1.789062-3.085937-5.085937-4.984375-8.652343-4.984375h-66.597657c-3.585937 0-6.894531 1.917969-8.679687 5.027344l-47.246094 82.445312-47.246094-82.445312c-1.785156-3.109375-5.09375-5.027344-8.679687-5.027344h-66.597657c-3.566406 0-6.863281 1.898438-8.652343 4.984375-1.789063 3.085937-1.796875 6.894531-.023438 9.988281l47.582031 83.027344h-53.382812c-16.542969 0-30 13.457031-30 30v137c0 5.523438 4.476562 10 10 10s10-4.476562 10-10v-137c0-5.515625 4.484375-10 10-10h119.507812l-12.609374 22h-22.550782c-5.523437 0-10 4.476562-10 10s4.476563 10 10 10h94.914063.023437.023438 10.34375c5.523437 0 10-4.476562 10-10 0-3.347656-1.648438-6.304688-4.179688-8.121094l13.683594-23.878906h64.84375c5.515625 0 10 4.484375 10 10v354c0 5.515625-4.484375 10-10 10h-274c-5.515625 0-10-4.484375-10-10v-137c0-5.523438-4.476562-10-10-10s-10 4.476562-10 10v137c0 16.542969 13.457031 30 30 30h274c16.542969 0 30-13.457031 30-30v-354c0-16.542969-13.457031-30-30-30zm-242.269531-78h43.550781l44.699219 78h-43.546875zm166.988281 0h43.550781l-68.773437 120h-43.546875zm0 0"/><path d="m116.246094 325.046875c13.671875 11.796875 31.449218 18.953125 50.882812 18.953125 19.421875 0 37.195313-7.152344 50.863282-18.941406.523437-.375 1.003906-.789063 1.441406-1.25 15.769531-14.28125 25.695312-34.90625 25.695312-57.808594 0-43.011719-34.992187-78-78-78-43.011718 0-78 34.992188-78 78 0 22.90625 9.925782 43.535156 25.703125 57.820312.429688.449219.902344.859376 1.414063 1.226563zm17.679687-11.53125c5.972657-12.636719 18.84375-21.03125 33.203125-21.03125 14.355469 0 27.222656 8.394531 33.199219 21.03125-9.414063 6.597656-20.859375 10.484375-33.199219 10.484375-12.34375 0-23.789062-3.886719-33.203125-10.484375zm21.875-52.355469v-5.332031c0-6.246094 5.082031-11.328125 11.328125-11.328125 6.242188 0 11.324219 5.082031 11.324219 11.328125v5.332031c0 6.246094-5.082031 11.324219-11.324219 11.324219-6.246094 0-11.328125-5.082031-11.328125-11.324219zm-46.675781 4.839844c0-31.980469 26.019531-58 58-58s58 26.019531 58 58c0 12.144531-3.757812 23.421875-10.160156 32.746094-5.4375-8.511719-13.042969-15.394532-21.949219-19.972656 3.429687-5.023438 5.4375-11.089844 5.4375-17.613282v-5.332031c0-17.273437-14.054687-31.328125-31.328125-31.328125s-31.324219 14.054688-31.324219 31.328125v5.332031c0 6.523438 2.007813 12.589844 5.433594 17.613282-8.902344 4.578124-16.511719 11.460937-21.945313 19.976562-6.402343-9.328125-10.164062-20.605469-10.164062-32.75zm0 0"/></svg>