<svg height="512pt" viewBox="0 -17 512 512" width="512pt" xmlns="http://www.w3.org/2000/svg"><path d="m377.710938 0h-330.273438c-5.546875 0-10.039062 4.496094-10.039062 10.039062v29.351563c-21.601563 2.9375-37.398438 15.667969-37.398438 31.375 0 15.710937 15.796875 28.441406 37.398438 31.378906v19.25c-21.601563 2.9375-37.398438 15.667969-37.398438 31.378907 0 15.710937 15.796875 28.441406 37.398438 31.378906v19.25c-21.601563 2.9375-37.398438 15.667968-37.398438 31.378906s15.796875 28.441406 37.398438 31.378906v19.25c-21.601563 2.9375-37.398438 15.667969-37.398438 31.378906 0 15.707032 15.796875 28.441407 37.398438 31.378907v19.246093c-21.601563 2.9375-37.398438 15.671876-37.398438 31.378907 0 15.710937 15.796875 28.441406 37.398438 31.378906v36.933594c0 5.542969 4.492187 10.039062 10.039062 10.039062h330.273438c5.542968 0 10.039062-4.496093 10.039062-10.039062v-457.066407c0-5.542968-4.496094-10.039062-10.039062-10.039062zm-357.632813 70.765625c0-3.734375 6.628906-8.96875 17.320313-11.042969v22.089844c-10.691407-2.074219-17.320313-7.308594-17.320313-11.046875zm0 82.007813c0-3.734376 6.628906-8.972657 17.320313-11.042969v22.085937c-10.691407-2.070312-17.320313-7.308594-17.320313-11.042968zm0 82.007812c0-3.738281 6.628906-8.972656 17.320313-11.042969v22.085938c-10.691407-2.070313-17.320313-7.308594-17.320313-11.042969zm0 82.007812c0-3.738281 6.628906-8.976562 17.320313-11.046874v22.089843c-10.691407-2.074219-17.320313-7.308593-17.320313-11.042969zm0 82.003907c0-3.734375 6.628906-8.972657 17.320313-11.042969v22.089844c-10.691407-2.074219-17.320313-7.308594-17.320313-11.046875zm347.59375 58.273437h-310.195313v-69.128906c10.148438 2.1875 16.40625 7.226562 16.40625 10.855469 0 5.542969 4.496094 10.039062 10.039063 10.039062s10.039063-4.496093 10.039063-10.039062c0-15.484375-15.359376-28.066407-36.484376-31.238281v-61.621094c10.148438 2.183594 16.40625 7.226562 16.40625 10.855468 0 5.542969 4.496094 10.039063 10.039063 10.039063s10.039063-4.496094 10.039063-10.039063c0-15.488281-15.359376-28.070312-36.484376-31.238281v-61.625c10.148438 2.183594 16.40625 7.226563 16.40625 10.855469 0 5.542969 4.496094 10.039062 10.039063 10.039062s10.039063-4.496093 10.039063-10.039062c0-15.488281-15.359376-28.070312-36.484376-31.238281v-61.625c10.148438 2.1875 16.40625 7.230469 16.40625 10.855469 0 5.546874 4.496094 10.039062 10.039063 10.039062s10.039063-4.492188 10.039063-10.039062c0-15.484376-15.359376-28.066407-36.484376-31.238282v-61.625c10.148438 2.1875 16.40625 7.230469 16.40625 10.855469 0 5.546875 4.496094 10.042969 10.039063 10.042969s10.039063-4.496094 10.039063-10.042969c0-15.484375-15.359376-28.066406-36.484376-31.234375v-19.453125h310.195313zm0 0"/><path d="m128.199219 324.789062h196.144531c5.546875 0 10.039062-4.496093 10.039062-10.039062s-4.492187-10.039062-10.039062-10.039062h-196.144531c-5.542969 0-10.039063 4.496093-10.039063 10.039062s4.496094 10.039062 10.039063 10.039062zm0 0"/><path d="m128.199219 172.433594h196.144531c5.546875 0 10.039062-4.496094 10.039062-10.039063s-4.492187-10.039062-10.039062-10.039062h-196.144531c-5.542969 0-10.039063 4.496093-10.039063 10.039062s4.496094 10.039063 10.039063 10.039063zm0 0"/><path d="m128.199219 248.609375h196.144531c5.546875 0 10.039062-4.492187 10.039062-10.039063 0-5.542968-4.492187-10.039062-10.039062-10.039062h-196.144531c-5.542969 0-10.039063 4.496094-10.039063 10.039062 0 5.546876 4.496094 10.039063 10.039063 10.039063zm0 0"/><path d="m128.199219 400.964844h196.144531c5.546875 0 10.039062-4.492188 10.039062-10.039063 0-5.542969-4.492187-10.039062-10.039062-10.039062h-196.144531c-5.542969 0-10.039063 4.496093-10.039063 10.039062 0 5.546875 4.496094 10.039063 10.039063 10.039063zm0 0"/><path d="m501.960938 0h-84.722657c-5.546875 0-10.039062 4.496094-10.039062 10.039062v348.738282.039062c0 .078125.007812.152344.011719.226563.007812.308593.027343.613281.0625.914062.011718.109375.03125.21875.050781.328125.042969.273438.089843.546875.15625.820313.023437.101562.050781.207031.078125.308593.082031.292969.171875.578126.277344.859376.019531.054687.03125.105468.050781.160156l42.363281 108.328125c1.507812 3.847656 5.21875 6.382812 9.351562 6.382812 4.132813 0 7.84375-2.535156 9.347657-6.382812l42.363281-108.328125c.019531-.054688.03125-.105469.050781-.160156.105469-.28125.195313-.566407.277344-.859376.027344-.101562.054687-.203124.078125-.304687.0625-.273437.117188-.550781.15625-.832031.019531-.105469.035156-.210938.050781-.316406.035157-.308594.054688-.621094.0625-.9375 0-.066407.007813-.132813.007813-.199219 0-.015625.003906-.03125.003906-.046875v-348.738282c0-5.542968-4.496094-10.039062-10.039062-10.039062zm-42.363282 293.78125c-5.542968 0-10.039062 4.496094-10.039062 10.039062v44.917969h-22.28125v-259.199219h22.28125v133.710938c0 5.542969 4.496094 10.039062 10.039062 10.039062 5.546875 0 10.039063-4.496093 10.039063-10.039062v-133.710938h22.285156v259.199219h-22.285156v-44.914062c0-5.546875-4.492188-10.042969-10.039063-10.042969zm-32.320312-273.703125h64.644531v49.382813h-64.644531zm32.320312 419.460937-27.65625-70.722656h55.3125zm0 0"/><path d="m459.59375 253.503906c-4.1875 0-8.015625 2.707032-9.4375 6.640625-1.421875 3.933594-.179688 8.472657 3.042969 11.140625 3.234375 2.671875 7.898437 3.035156 11.507812.902344 3.605469-2.125 5.539063-6.414062 4.746094-10.523438-.898437-4.675781-5.089844-8.160156-9.859375-8.160156zm0 0"/><path d="m128.199219 96.257812h155.914062c5.542969 0 10.039063-4.496093 10.039063-10.042968 0-5.542969-4.496094-10.039063-10.039063-10.039063h-155.914062c-5.542969 0-10.039063 4.496094-10.039063 10.039063 0 5.546875 4.496094 10.042968 10.039063 10.042968zm0 0"/><path d="m315.070312 90.054688c1.59375 3.824218 5.464844 6.320312 9.605469 6.191406 4.132813-.128906 7.835938-2.890625 9.167969-6.800782 1.351562-3.960937.027344-8.488281-3.257812-11.089843-3.285157-2.601563-7.972657-2.878907-11.535157-.664063-4.117187 2.558594-5.847656 7.882813-3.980469 12.363282zm0 0"/></svg>