<svg height="496pt" viewBox="0 0 496 496" width="496pt" xmlns="http://www.w3.org/2000/svg"><g fill="#656665"><path d="m8 440h480v48h-480zm0 0"/><path d="m8 8h480v48h-480zm0 0"/><path d="m376 440h-256l10.113281-70.792969c3.375-23.640625 23.628907-41.207031 47.519531-41.207031h38.367188l32 24 32-24h38.367188c23.890624 0 44.136718 17.566406 47.519531 41.207031zm0 0"/></g><path d="m294.367188 328h-14.367188l-32 24-12-9-12 9-32-24h-14.367188c-23.890624 0-44.136718 17.566406-47.519531 41.207031l-10.113281 70.792969h232l-10.113281-70.792969c-3.375-23.640625-23.628907-41.207031-47.519531-41.207031zm0 0" fill="#999"/><path d="m224 288-8 40 32 24 32-24-8-40" fill="#dcb29c"/><path d="m264 320-6.398438-32h-33.601562l-8 40 18.664062 14zm0 0" fill="#f3c6b0"/><path d="m296 168v80c0 26.511719-21.488281 48-48 48s-48-21.488281-48-48v-80" fill="#dcb29c"/><path d="m236 294.425781c20.6875-5.335937 36-24.066406 36-46.425781v-80h-72v80c0 22.359375 15.3125 41.089844 36 46.425781zm0 0" fill="#f3c6b0"/><path d="m296 200v-48h-72l-24-8v56l48-24v24zm0 0" fill="#7e4e4d"/><path d="m224 152h-24v36l24-12v12l24-12v24h24v-48zm0 0" fill="#8d5655"/><path d="m248 304c-30.878906 0-56-25.128906-56-56v-48c0-3.03125 1.710938-5.800781 4.425781-7.160156l48-24c2.476563-1.230469 5.421875-1.105469 7.78125.351562 2.351563 1.464844 3.792969 4.03125 3.792969 6.808594v16h40c4.414062 0 8 3.585938 8 8v48c0 30.871094-25.121094 56-56 56zm-40-99.054688v43.054688c0 22.054688 17.945312 40 40 40s40-17.945312 40-40v-40h-40c-4.414062 0-8-3.585938-8-8v-11.054688zm0 0"/><path d="m304 200h-16v-40h-64c-.855469 0-1.710938-.136719-2.527344-.40625l-13.472656-4.496094v44.902344h-16v-56c0-2.566406 1.230469-4.984375 3.328125-6.488281 2.078125-1.503907 4.769531-1.910157 7.207031-1.105469l22.761719 7.59375h70.703125c4.414062 0 8 3.585938 8 8zm0 0"/><path d="m376 448h-256c-2.320312 0-4.519531-1.007812-6.039062-2.761719-1.519532-1.75-2.199219-4.078125-1.871094-6.375l10.109375-70.792969c3.914062-27.40625 27.746093-48.078124 55.433593-48.078124h38.367188v-32h16v40c0 4.421874-3.585938 8-8 8h-46.367188c-19.777343 0-36.800781 14.769531-39.601562 34.34375l-8.808594 61.664062h237.554688l-8.808594-61.65625c-2.800781-19.574219-19.816406-34.34375-39.601562-34.34375h-46.367188c-4.414062 0-8-3.574219-8-8v-40h16v32h38.367188c27.6875 0 51.519531 20.671875 55.433593 48.078125l10.109375 70.792969c.328125 2.296875-.351562 4.625-1.871094 6.375-1.519531 1.753906-3.71875 2.753906-6.039062 2.753906zm0 0"/><path d="m488 496h-480c-4.414062 0-8-3.574219-8-8v-48c0-4.425781 3.585938-8 8-8h480c4.414062 0 8 3.574219 8 8v48c0 4.425781-3.585938 8-8 8zm-472-16h464v-32h-464zm0 0"/><path d="m488 64h-480c-4.414062 0-8-3.585938-8-8v-48c0-4.414062 3.585938-8 8-8h480c4.414062 0 8 3.585938 8 8v48c0 4.414062-3.585938 8-8 8zm-472-16h464v-32h-464zm0 0"/><path d="m248 384c-1.855469 0-3.703125-.640625-5.207031-1.929688l-56-48 10.414062-12.140624 50.792969 43.535156 50.792969-43.527344 10.414062 12.140625-56 48c-1.503906 1.28125-3.351562 1.921875-5.207031 1.921875zm0 0"/><path d="m304 384h48v16h-48zm0 0"/><path d="m240 56h16v384h-16zm0 0"/><path d="m160 56h16v384h-16zm0 0"/><path d="m80 56h16v384h-16zm0 0"/><path d="m400 56h16v384h-16zm0 0"/><path d="m320 56h16v384h-16zm0 0"/></svg>