<svg height="512pt" viewBox="0 0 512 512.001" width="512pt" xmlns="http://www.w3.org/2000/svg"><path d="m220.128906 10c-19.882812 0-36 16.117188-36 36v4c0 19.882812 16.117188 36 36 36 19.878906 0 36-16.117188 36-36v-4c0-19.882812-16.121094-36-36-36zm0 0" fill="#ffd5ab"/><path d="m193.863281 256.128906-28.410156 145.875c-2.824219 14.511719 8.289063 27.996094 23.070313 27.996094 11.296874 0 20.996093-8.035156 23.09375-19.136719l27.105468-143.367187zm0 0" fill="#72d8ff"/><path d="m245.933594 98.851562 64.832031 64.832032c7.8125 7.808594 7.8125 20.472656 0 28.285156-3.90625 3.902344-9.023437 5.855469-14.144531 5.855469-5.117188 0-10.234375-1.953125-14.140625-5.855469l-25.160157-25.160156zm0 0" fill="#62cd4d"/><path d="m270 210.039062h-14v-85.039062c0-21.539062-17.460938-39-39-39-10.59375 0-20.199219 4.234375-27.226562 11.089844v-.03125l-88.054688 88.054687c-7.808594 7.8125-7.808594 20.476563 0 28.285157 3.90625 3.90625 9.027344 5.859374 14.144531 5.859374 5.121094 0 10.238281-1.953124 14.144531-5.859374l47.992188-47.992188v57.011719c0 24.164062 19.585938 43.75 43.75 43.75h48.25v67.832031c0 13.257812 10.746094 24 24 24s24-10.742188 24-24v-75.960938c0-26.507812-21.488281-48-48-48zm0 0" fill="#62cd4d"/><path d="m178 210.039062v12.378907c0 24.164062 19.585938 43.75 43.75 43.75h48.25v67.832031c0 13.257812 10.746094 24 24 24s24-10.742188 24-24v-75.960938c0-26.507812-21.488281-48-48-48zm0 0" fill="#72d8ff"/><path d="m502 286h-123v72h-123v72h-123v72h369zm0 0" fill="#ffdc8d"/><path d="m10 492c-2.628906 0-5.210938 1.070312-7.070312 2.929688-1.859376 1.863281-2.929688 4.441406-2.929688 7.070312 0 2.632812 1.070312 5.210938 2.929688 7.070312 1.859374 1.859376 4.441406 2.929688 7.070312 2.929688s5.210938-1.070312 7.070312-2.929688c1.859376-1.859374 2.929688-4.4375 2.929688-7.070312 0-2.628906-1.070312-5.210938-2.929688-7.070312-1.859374-1.859376-4.441406-2.929688-7.070312-2.929688zm0 0"/><path d="m462 316h-73v-20h113c5.523438 0 10-4.476562 10-10 0-5.519531-4.476562-10-10-10h-123c-5.523438 0-10 4.480469-10 10v62h-44.027344c1.9375-4.273438 3.027344-9.007812 3.027344-14v-75.960938c0-21.496093-11.761719-40.28125-29.183594-50.300781 7.1875-.515625 13.875-3.554687 19.019532-8.699219 11.699218-11.695312 11.699218-30.730468 0-42.429687l-64.832032-64.832031c-.0625-.0625-.136718-.121094-.203125-.183594-1.59375-1.707031-3.3125-3.304688-5.132812-4.769531 11.199219-8.398438 18.460937-21.777344 18.460937-36.824219v-4c0-25.363281-20.636718-46-46-46-25.367187 0-46 20.636719-46 46v4c0 13.664062 5.992188 25.949219 15.484375 34.382812-2.207031 1.492188-4.316406 3.167969-6.285156 5.03125-.214844.183594-.421875.371094-.625.574219l-88.054687 88.054688c-11.695313 11.695312-11.695313 30.730469.003906 42.429687 5.664062 5.664063 13.199218 8.785156 21.210937 8.785156s15.546875-3.121093 21.214844-8.789062l30.921875-30.921875v32.871094c0 14.421875 5.71875 27.523437 15 37.1875l-27.363281 140.488281c-1.324219 6.804688-.511719 13.722656 2.21875 19.90625h-24.855469c-5.523438 0-10 4.480469-10 10v62h-73c-5.523438 0-10 4.480469-10 10 0 5.523438 4.476562 10 10 10h83c5.523438 0 10-4.476562 10-10v-62h113c5.523438 0 10-4.476562 10-10v-62h113c5.523438 0 10-4.476562 10-10v-22h73c5.523438 0 10-4.476562 10-10 0-5.519531-4.476562-10-10-10zm-154 18c0 7.722656-6.28125 14-14 14s-14-6.277344-14-14v-67.832031c0-5.523438-4.476562-10-10-10h-48.25c-18.609375 0-33.75-15.140625-33.75-33.75v-2.378907h82c20.953125 0 38 17.046876 38 38zm-38-133.960938h-4v-10.410156l9.410156 9.410156c.5.5 1.019532.972657 1.546875 1.433594-2.28125-.273437-4.601562-.433594-6.957031-.433594zm33.695312-15.140624c-1.890624 1.886718-4.398437 2.925781-7.070312 2.925781s-5.183594-1.039063-7.074219-2.925781l-23.550781-23.554688v-28.285156l37.695312 37.695312c3.898438 3.898438 3.898438 10.242188 0 14.144532zm-109.566406-138.898438c0-14.335938 11.660156-26 26-26 14.335938 0 26 11.664062 26 26v4c0 14.339844-11.664062 26-26 26-14.339844 0-26-11.660156-26-26zm-71.191406 160.328125c-1.890625 1.890625-4.402344 2.929687-7.074219 2.929687-2.667969 0-5.183593-1.039062-7.070312-2.929687s-2.929688-4.398437-2.929688-7.070313c0-2.671874 1.042969-5.183593 2.929688-7.070312l87.589843-87.589844c.125-.113281.25-.230468.375-.347656 5.449219-5.320312 12.640626-8.25 20.242188-8.25 15.992188 0 29 13.011719 29 29v75.039062h-58v-34.636718c0-4.042969-2.4375-7.6875-6.171875-9.238282-1.238281-.511718-2.539063-.761718-3.824219-.761718-2.605468 0-5.160156 1.019531-7.074218 2.929687zm55.164062 208.757813c-2.574218-3.125-3.605468-7.195313-2.832031-11.171876l25.695313-131.933593c6.398437 2.695312 13.421875 4.1875 20.785156 4.1875h5.160156l-25.117187 132.839843c-1.203125 6.371094-6.785157 10.992188-13.269531 10.992188-4.046876 0-7.847657-1.789062-10.421876-4.914062zm67.898438-57.085938v62h-26.816406c1.011718-2.292969 1.78125-4.730469 2.261718-7.277344l25.816407-136.554687h12.738281v57.832031c0 4.992188 1.089844 9.726562 3.027344 14h-7.027344c-5.523438 0-10 4.480469-10 10zm0 0"/><path d="m502 316c-2.628906 0-5.210938 1.070312-7.070312 2.929688-1.859376 1.863281-2.929688 4.441406-2.929688 7.070312 0 2.632812 1.070312 5.210938 2.929688 7.070312 1.859374 1.859376 4.441406 2.929688 7.070312 2.929688s5.210938-1.070312 7.070312-2.929688c1.859376-1.859374 2.929688-4.4375 2.929688-7.070312 0-2.628906-1.070312-5.210938-2.929688-7.070312-1.859374-1.859376-4.441406-2.929688-7.070312-2.929688zm0 0"/></svg>