<svg height="480pt" viewBox="-23 0 480 480.00005" width="480pt" xmlns="http://www.w3.org/2000/svg"><path d="m378.71875 136h-8.878906c10.777344-10.519531 16.859375-24.9375 16.878906-40v-2.71875c22.082031-7.769531 35.339844-30.328125 31.382812-53.394531-3.957031-23.070313-23.976562-39.9218752-47.382812-39.886719h-112c-8.835938 0-16 7.164062-16 16v32c-.007812 20.351562 12.8125 38.496094 32 45.28125v2.71875c.019531 15.0625 6.105469 29.480469 16.882812 40h-8.882812c-30.925781 0-56 25.070312-56 56v88c0 13.253906 10.746094 24 24 24h8v16c0 4.417969 3.582031 8 8 8v104c-13.253906 0-24 10.746094-24 24v16c0 4.417969 3.582031 8 8 8h160c4.417969 0 8-3.582031 8-8v-16c0-13.253906-10.742188-24-24-24v-80c0-4.417969-3.582031-8-8-8s-8 3.582031-8 8v80h-40v-80c0-4.417969-3.582031-8-8-8s-8 3.582031-8 8v80h-40v-104h112c4.417969 0 8-3.582031 8-8v-16h8c13.257812 0 24-10.746094 24-24v-88c0-30.929688-25.070312-56-56-56zm16 312c4.417969 0 8 3.582031 8 8v8h-64v-16zm-72 0v16h-64v-8c0-4.417969 3.582031-8 8-8zm-32-352v-40h56c4.417969 0 8-3.582031 8-8s-3.582031-8-8-8h-64c-4.417969 0-8 3.582031-8 8v27.679688c-9.890625-5.710938-15.988281-16.257813-16-27.679688v-32h112c14.460938.027344 27.109375 9.746094 30.851562 23.714844 3.746094 13.964844-2.339843 28.710937-14.851562 35.964844v-27.679688c0-4.417969-3.582031-8-8-8s-8 3.582031-8 8v48c0 22.089844-17.90625 40-40 40-22.089844 0-40-17.910156-40-40zm-8 56h96c22.09375 0 40 17.910156 40 40v56h-16v-32c0-4.417969-3.582031-8-8-8h-8v-16c0-4.417969-3.582031-8-8-8s-8 3.582031-8 8v16h-17.839844l16.722656-27.921875c1.6875-3.738281.277344-8.148437-3.269531-10.207031-3.546875-2.0625-8.078125-1.109375-10.492187 2.207031l-9.121094 15.042969v-11.121094c0-4.417969-3.582031-8-8-8h-32c-4.417969 0-8 3.582031-8 8h-24c-4.417969 0-8 3.582031-8 8v24c-4.417969 0-8 3.582031-8 8v32h-16v-56c0-22.089844 17.910156-40 40-40zm0 56v-16h16v16zm32-24h16v24h-16zm-72 96v-16h32c4.417969 0 8 3.582031 8 8v8c0 4.417969-3.582031 8-8 8h-24c-4.417969 0-8-3.582031-8-8zm144 32h-48v-40c0-4.417969-3.582031-8-8-8s-8 3.582031-8 8v40h-48v-8c13.257812 0 24-10.746094 24-24v-8c0-13.253906-10.742188-24-24-24v-24h112v24c-13.253906 0-24 10.746094-24 24v8c0 13.253906 10.746094 24 24 24zm32-32c0 4.417969-3.582031 8-8 8h-24c-4.417969 0-8-3.582031-8-8v-8c0-4.417969 3.582031-8 8-8h32zm0 0"/><path d="m202.71875 208h-56v-24c.15625-3.652344-2.179688-6.945312-5.679688-8-3.382812-1.003906-7.023437.332031-8.960937 3.28125l-48 72c-1.757813 2.667969-1.757813 6.128906 0 8.796875l48 72c1.398437 2.359375 3.902344 3.839844 6.640625 3.921875.769531.113281 1.550781.113281 2.320312 0 3.5-1.054688 5.835938-4.347656 5.679688-8v-24h48c4.417969 0 8-3.582031 8-8s-3.582031-8-8-8h-56c-4.417969 0-8 3.582031-8 8v5.601562l-30.398438-45.601562 30.398438-45.601562v5.601562c0 4.417969 3.582031 8 8 8h64c4.417969 0 8-3.582031 8-8s-3.582031-8-8-8zm0 0"/><path d="m170.71875 320c-4.417969 0-8 3.582031-8 8v56h-96v-256c0-2.339844-1.023438-4.558594-2.796875-6.078125l-39.601563-33.921875h138.398438v96c0 4.417969 3.582031 8 8 8s8-3.582031 8-8v-104c0-4.417969-3.582031-8-8-8h-168c-.925781-.011719-1.851562.152344-2.71875.480469v319.519531c0 2.339844 1.023438 4.558594 2.800781 6.078125l56 48c-.105469.636719-.132812 1.28125-.082031 1.921875 1.160156-.007812 2.300781-.253906 3.359375-.71875 2.835937-1.3125 4.648437-4.15625 4.640625-7.28125v-40h104c4.417969 0 8-3.582031 8-8v-64c0-4.417969-3.582031-8-8-8zm-120 102.640625-40-34.320313v-290.960937l40 34.320313v137.039062l-10.320312-10.398438c-3.136719-3.136718-8.222657-3.136718-11.359376 0-3.136718 3.136719-3.136718 8.222657 0 11.359376l21.679688 21.601562zm0 0"/></svg>