<?xml version="1.0" encoding="iso-8859-1"?>
<!-- Generator: Adobe Illustrator 19.0.0, SVG Export Plug-In . SVG Version: 6.00 Build 0)  -->
<svg version="1.1" id="Capa_1" xmlns="http://www.w3.org/2000/svg" xmlns:xlink="http://www.w3.org/1999/xlink" x="0px" y="0px"
	 viewBox="0 0 479.997 479.997" style="enable-background:new 0 0 479.997 479.997;" xml:space="preserve">
<g>
	<g>
		<path d="M477.654,146.336l-112-112c-3.124-3.123-8.188-3.123-11.312,0l-54.808,54.808l-54.64,21.384L180.326,89l-54.672-54.664
			c-3.124-3.123-8.188-3.123-11.312,0l-112,112c-3.123,3.124-3.123,8.188,0,11.312l54.288,54.288l14.688,73.424l-6.344,6.352
			c-11.96,11.958-11.962,31.349-0.003,43.309c5.744,5.745,13.535,8.972,21.659,8.971c0.512,0,1.008-0.12,1.52-0.152
			c0,0.52-0.152,1.008-0.152,1.528c0.022,16.907,13.725,30.606,30.632,30.624c0.512,0,1.008-0.12,1.52-0.152
			c0,0.52-0.152,1.008-0.152,1.528c0.022,16.907,13.725,30.606,30.632,30.624c0.512,0,1.008-0.12,1.52-0.152
			c0,0.52-0.152,1.008-0.152,1.528c-0.002,16.913,13.708,30.625,30.621,30.627c8.124,0.001,15.915-3.226,21.659-8.971l7.712-7.72
			l15.72,15.72c11.954,11.965,31.344,11.973,43.309,0.019c5.752-5.747,8.982-13.545,8.979-21.675c0-0.52-0.12-1.008-0.152-1.528
			c0.512,0,1.008,0.152,1.52,0.152c16.907-0.018,30.61-13.717,30.632-30.624c0-0.52-0.12-1.008-0.152-1.528
			c0.512,0,1.008,0.152,1.52,0.152c16.907-0.018,30.61-13.717,30.632-30.624c0-0.52-0.12-1.008-0.152-1.528
			c0.512,0,1.008,0.152,1.52,0.152c16.913,0.002,30.625-13.708,30.627-30.621c0.001-8.124-3.226-15.915-8.971-21.659l-4.536-4.544
			l59.608-81.96l55.56-55.56C480.777,154.524,480.777,149.46,477.654,146.336z M63.998,196.68L19.31,151.992L119.998,51.304
			l44.688,44.688L63.998,196.68z M96.974,323.712c-2.739,2.749-6.463,4.29-10.344,4.28c-8.077,0.004-14.627-6.541-14.631-14.617
			c-0.002-3.882,1.54-7.606,4.287-10.351l10.736-10.752c5.716-5.713,14.98-5.711,20.693,0.005c2.741,2.743,4.282,6.461,4.283,10.339
			c-0.01,3.878-1.551,7.596-4.288,10.344L96.974,323.712z M128.974,355.712c-2.739,2.749-6.463,4.29-10.344,4.28
			c-8.077,0.004-14.627-6.541-14.631-14.617c-0.002-3.882,1.54-7.606,4.287-10.351l10.736-10.752
			c5.716-5.713,14.98-5.711,20.693,0.005c2.741,2.743,4.282,6.461,4.283,10.339c-0.01,3.878-1.551,7.596-4.288,10.344
			L128.974,355.712z M150.63,391.992c-8.077,0.004-14.627-6.541-14.631-14.617c-0.002-3.882,1.54-7.606,4.287-10.351l10.736-10.752
			c5.715-5.713,14.98-5.711,20.693,0.005c2.741,2.743,4.282,6.461,4.283,10.339c-0.01,3.878-1.551,7.596-4.288,10.344
			l-10.736,10.752C158.235,390.461,154.511,392.002,150.63,391.992z M203.71,408.96l-10.736,10.752
			c-5.715,5.713-14.98,5.711-20.693-0.005c-2.741-2.743-4.282-6.461-4.283-10.339c0.01-3.878,1.551-7.596,4.288-10.344
			l10.736-10.752c5.715-5.713,14.98-5.711,20.693,0.005c2.741,2.743,4.282,6.461,4.283,10.339
			C207.988,402.494,206.447,406.212,203.71,408.96z M355.698,331.717c-2.742,2.737-6.457,4.274-10.331,4.275
			c-3.881,0.01-7.605-1.531-10.344-4.28l-33.368-33.376l-11.312,11.312l33.376,33.376c5.708,5.72,5.699,14.984-0.021,20.693
			c-2.742,2.737-6.457,4.274-10.331,4.275c-3.881,0.01-7.605-1.531-10.344-4.28l-33.368-33.376l-11.312,11.312l33.376,33.376
			c5.708,5.72,5.699,14.984-0.021,20.693c-2.742,2.737-6.457,4.274-10.331,4.275c-3.881,0.01-7.605-1.531-10.344-4.28
			l-33.368-33.376l-11.312,11.312l33.376,33.376c5.708,5.72,5.699,14.984-0.021,20.693c-2.742,2.737-6.457,4.274-10.331,4.275
			c-3.881,0.01-7.605-1.531-10.344-4.28l-17.344-17.32c6.482-15.646-0.947-33.584-16.593-40.065
			c-3.715-1.539-7.697-2.332-11.719-2.335c-0.512,0-1.008,0.12-1.52,0.152c0-0.52,0.152-1.008,0.152-1.528
			c-0.022-16.907-13.725-30.606-30.632-30.624c-0.512,0-1.008,0.12-1.52,0.152c0-0.52,0.152-1.008,0.152-1.528
			c-0.022-16.907-13.725-30.606-30.632-30.624c-0.512,0-1.008,0.12-1.52,0.152c0-0.52,0.152-1.008,0.152-1.528
			c0.019-16.909-13.673-30.631-30.582-30.65c-4.115-0.005-8.189,0.82-11.978,2.426L72.678,210.6l105.48-105.456l43.44,14.488
			l-12.536,4.904c-1.029,0.405-1.963,1.018-2.744,1.8l-77.368,77.376c-11.96,11.96-11.96,31.352,0,43.312s31.352,11.96,43.312,0
			l36.056-36.064c11.325,8.859,25.302,13.649,39.68,13.6c6.282,0.004,12.532-0.907,18.552-2.704l89.168,89.168
			C361.427,316.744,361.417,326.008,355.698,331.717z M351.038,283.72l-68.944-68.944c4.186-2.596,8.064-5.658,11.56-9.128l8-8
			l-11.312-11.312l-8,8c-18.969,18.964-49.719,18.964-68.688,0c-3.124-3.123-8.188-3.123-11.312,0l-41.368,41.376
			c-5.715,5.713-14.98,5.711-20.693-0.005c-2.741-2.743-4.282-6.461-4.283-10.339c0.01-3.878,1.551-7.596,4.288-10.344
			l76.184-76.192l28.872-11.296h0.128v-0.104l56.536-22.12l103.496,103.48L351.038,283.72z M415.998,196.68L315.31,95.992
			l44.688-44.688l100.688,100.688L415.998,196.68z"/>
	</g>
</g>
<g>
	<g>
		<rect x="408" y="144.035" transform="matrix(0.7071 -0.7071 0.7071 0.7071 14.3388 338.6866)" width="16" height="16"/>
	</g>
</g>
<g>
	<g>
		<rect x="56.002" y="143.994" transform="matrix(0.7071 -0.7071 0.7071 0.7071 -88.73 89.7738)" width="16" height="16"/>
	</g>
</g>
<g>
</g>
<g>
</g>
<g>
</g>
<g>
</g>
<g>
</g>
<g>
</g>
<g>
</g>
<g>
</g>
<g>
</g>
<g>
</g>
<g>
</g>
<g>
</g>
<g>
</g>
<g>
</g>
<g>
</g>
</svg>
